<svg xmlns="http://www.w3.org/2000/svg" xmlns:xlink="http://www.w3.org/1999/xlink" width="75" height="20" viewBox="0 0 75 20">
    <defs>
        <path id="prefix__a" d="M0.067 0.077L4.324 0.077 4.324 4.339 0.067 4.339z"/>
        <path id="prefix__c" d="M0.054 0.006L5.6 0.006 5.6 17.172 0.054 17.172z"/>
    </defs>
    <g fill="none" fill-rule="evenodd">
        <g transform="translate(33.505 .045)">
            <mask id="prefix__b" fill="#fff">
                <use xlink:href="#prefix__a"/>
            </mask>
            <path fill="#E20714" d="M2.224.077c-1.188 0-2.157.955-2.157 2.13 0 1.195.936 2.132 2.128 2.132 1.192 0 2.128-.933 2.128-2.119.015-.562-.19-1.096-.583-1.503-.395-.412-.933-.64-1.516-.64" mask="url(#prefix__b)"/>
        </g>
        <path fill="#E20714" d="M34.022 18.777L37.368 18.777 37.368 5.45 34.022 5.996zM28.115 16.262c-.33.232-1.003.432-1.738.432-1.345 0-1.951-1.033-1.929-2.236.024-.995.644-2.125 2.324-2.125h1.343v3.93zm-1.383-11.05c-1.6 0-3.035.453-4.512 1.188l-.377.193.899 2.006.508-.24c1.044-.467 2.159-.78 3.16-.74 1.213.05 1.71.606 1.71 1.767v.681h-1.985c-3.187 0-5.17 1.69-5.226 4.311 0 2.494 2.077 4.64 4.968 4.64 2.332 0 4.306-.756 5.638-2.09V9.815c0-3.464-2.473-4.602-4.783-4.602zM61.271 7.808c1.487 0 1.707 1.614 1.707 2.618h-3.623c.058-1.29.595-2.618 1.916-2.618m.724 8.862c-.917 0-1.537-.301-1.943-.738-.6-.653-.87-1.988-.796-3.41h7.214v-.332c-.063-4.724-1.671-6.874-5.199-6.874-3.933 0-5.466 3.62-5.495 7.02-.025 2.15.785 4.317 2.272 5.55.903.75 2.155 1.166 3.606 1.166.794 0 1.618-.115 2.373-.351 1.448-.447 2.517-1.223 2.517-1.223l-.945-1.941c-.169.127-1.615 1.133-3.604 1.133M40.046 7.838l-.003 10.95h3.412V8.48c.447-.433 1.391-.815 2.288-.85.832-.033 1.37.14 1.37.14l.944-2.118c-.366-.182-1.24-.405-2.254-.405-1.469 0-3.724.43-5.757 2.591"/>
        <g transform="translate(68.472 1.751)">
            <mask id="prefix__d" fill="#fff">
                <use xlink:href="#prefix__c"/>
            </mask>
            <path fill="#E20714" d="M5.092 14.928C3.7 14.821 3.41 14.21 3.41 13.193V.006L.054.58v12.395c0 2.938 1.595 4.198 4.265 4.198.572 0 1.281-.135 1.281-.135v-2.103s-.315.009-.508-.006" mask="url(#prefix__d)"/>
        </g>
        <path fill="#E20714" d="M52.39 1.776l-3.43.55v12.458c0 2.79 1.63 4.11 4.363 4.11.657 0 1.275-.124 1.275-.124v-2.073c-.038-.003-.29-.003-.484-.01-1.441-.05-1.723-.844-1.723-1.762V7.916h2.207v-2.46h-2.207v-3.68zM6.622 18.41c1.044-.375 1.872-.9 2.671-1.406l.217-.134c.846-.533 1.67-1.155 2.52-1.898 1.88-1.644 3.008-3.256 3.655-5.225.262-.8.632-2.355.178-3.817-.333-1.063-.977-1.94-1.915-2.6-.108-.091-1.277-1.028-3.483-1.028-2.017 0-4.229.78-6.574 2.317l-.074.046-.01.01c-.069.04-.136.082-.21.132-.054.04-.113.08-.182.119-.478.325-.937.678-1.363 1.055C1.063 6.938-.066 8.54.003 9.9c.03.575.27 1.047.715 1.397.401.313.902.473 1.488.473 1.201 0 2.518-.654 3.418-1.206.056-.041.113-.08.171-.116.157-.105.313-.207.47-.314l.155-.104c1.28-.857 2.604-1.745 4.094-2.263.388-.132.726-.196 1.037-.196.154 0 .305.015.448.048.454.104.786.363.984.767.346.707.263 1.818-.208 2.836-.641 1.386-1.745 2.753-3.276 4.063-.78.665-1.5 1.181-2.143 1.53l-.057.03c-.3.165-.637.351-.994.484l-.05.02c-.105.039-.194.074-.277.101-1.498.402-.587-.918-.587-.918.331-.392.667-.708 1.023-1.036.203-.19.412-.387.623-.598l.047-.048c.26-.262.62-.62.598-1.132-.031-.683-.723-1.11-1.374-1.129h-.047c-.626 0-1.219.37-1.606.676-.388.311-.8.777-1.075 1.214-.399.632-1.237 2.245-.42 3.533.326.515.872.776 1.622.776.523 0 1.142-.125 1.84-.378"/>
    </g>
</svg>
